<svg xmlns="http://www.w3.org/2000/svg" width="15" height="15" viewBox="0 0 15 15">
  <path id="Vector" d="M12.75,2.25h-1.5V1.5a.75.75,0,0,0-1.5,0v.75H5.25V1.5a.75.75,0,0,0-1.5,0v.75H2.25A2.25,2.25,0,0,0,0,4.5v9a2.25,2.25,0,0,0,2.25,2.25h10.5A2.25,2.25,0,0,0,15,13.5v-9a2.25,2.25,0,0,0-2.25-2.25ZM13.5,13.5a.75.75,0,0,1-.75.75H2.25a.75.75,0,0,1-.75-.75V8.25h12Zm0-6.75H1.5V4.5a.75.75,0,0,1,.75-.75h1.5V4.5a.75.75,0,1,0,1.5,0V3.75h4.5V4.5a.75.75,0,1,0,1.5,0V3.75h1.5a.75.75,0,0,1,.75.75Z" transform="translate(0 -0.75)" fill="#8166ac"/>
</svg>
