<?xml version="1.0" standalone="no"?>
<!DOCTYPE svg PUBLIC "-//W3C//DTD SVG 20010904//EN"
 "http://www.w3.org/TR/2001/REC-SVG-20010904/DTD/svg10.dtd">
<svg version="1.0" xmlns="http://www.w3.org/2000/svg"
 width="24.000000pt" height="24.000000pt" viewBox="0 0 24.000000 24.000000"
 preserveAspectRatio="xMidYMid meet">

<g transform="translate(0.000000,24.000000) scale(0.100000,-0.100000)"
fill="#FFFFFF" stroke="none">
<path d="M46 194 c-22 -21 -22 -127 0 -148 21 -22 127 -22 148 0 22 21 22 127
0 148 -10 11 -34 16 -74 16 -40 0 -64 -5 -74 -16z m139 -74 l0 -65 -65 0 -65
0 -3 54 c-5 80 -2 82 70 79 l63 -3 0 -65z"/>
<path d="M160 170 c0 -5 -13 -7 -28 -4 -50 10 -82 -45 -46 -80 35 -36 90 -4
80 46 -3 15 -1 28 4 28 6 0 10 5 10 10 0 6 -4 10 -10 10 -5 0 -10 -4 -10 -10z
m-15 -50 c0 -18 -6 -26 -23 -28 -24 -4 -38 18 -28 44 3 9 15 14 28 12 17 -2
23 -10 23 -28z"/>
</g>
</svg>
