<svg xmlns="http://www.w3.org/2000/svg" width="16" height="18.133" viewBox="0 0 16 18.133">
  <path id="Vector-2" d="M10.268,4.133a2.2,2.2,0,0,1-.9,0,2.154,2.154,0,0,1-.817-.354.975.975,0,0,0-1.111,0,2.154,2.154,0,0,1-.817.354,2.2,2.2,0,0,1-.9,0,.982.982,0,0,0-.417,0,.958.958,0,0,0-.374.176.908.908,0,0,0-.257.314.869.869,0,0,0-.091.389V7.63A3.6,3.6,0,0,0,4.985,9.3a3.769,3.769,0,0,0,1.132,1.328l1.289.9a.975.975,0,0,0,1.111,0l1.289-.9A3.774,3.774,0,0,0,10.96,9.308a3.6,3.6,0,0,0,.409-1.678V5.017a.87.87,0,0,0-.091-.389.907.907,0,0,0-.257-.314.958.958,0,0,0-.356-.168A.982.982,0,0,0,10.268,4.133Zm-.743,3.5a1.87,1.87,0,0,1-.207.87,1.959,1.959,0,0,1-.593.689L8,9.7l-.725-.514A1.959,1.959,0,0,1,6.683,8.5a1.87,1.87,0,0,1-.207-.87V5.972A4.108,4.108,0,0,0,8,5.566a4.108,4.108,0,0,0,1.525.406Zm6.437-.7a7.463,7.463,0,0,0-1.411-3.661A7.922,7.922,0,0,0,11.44.745a8.3,8.3,0,0,0-7.863.532A7.869,7.869,0,0,0,1.146,3.722a7.492,7.492,0,0,0-1.108,3.2,7.323,7.323,0,0,0,.433,3.327,7.591,7.591,0,0,0,1.882,2.827l4.988,4.785a.944.944,0,0,0,.306.2.979.979,0,0,0,.724,0,.944.944,0,0,0,.306-.2l4.969-4.785a7.592,7.592,0,0,0,1.882-2.827A7.323,7.323,0,0,0,15.962,6.927Zm-3.633,4.884L8,15.956,3.671,11.811A5.821,5.821,0,0,1,2.24,9.648a5.617,5.617,0,0,1-.329-2.541,5.75,5.75,0,0,1,.849-2.469A6.039,6.039,0,0,1,4.631,2.755a6.315,6.315,0,0,1,6.739,0A6.041,6.041,0,0,1,13.237,4.63a5.75,5.75,0,0,1,.852,2.459,5.618,5.618,0,0,1-.325,2.551A5.822,5.822,0,0,1,12.329,11.811Z" fill="#8166ac"/>
</svg>
