<svg xmlns="http://www.w3.org/2000/svg" width="17.34" height="13.417" viewBox="0 0 17.34 13.417">
  <path id="users" d="M10.2,9.486A3.883,3.883,0,0,0,11.54,6.55a3.946,3.946,0,1,0-7.892,0A3.883,3.883,0,0,0,4.989,9.486a6.314,6.314,0,0,0-3.709,5.746.789.789,0,0,0,1.579,0,4.736,4.736,0,0,1,9.471,0,.789.789,0,0,0,1.578,0A6.314,6.314,0,0,0,10.2,9.486Zm-2.6-.568a2.368,2.368,0,1,1,1.674-.693A2.368,2.368,0,0,1,7.593,8.918Zm7.687.253A3.946,3.946,0,0,0,12.329,2.6a.789.789,0,1,0,0,1.579,2.364,2.364,0,0,1,1.184,4.412.788.788,0,0,0-.039,1.342l.308.205.1.055a5.525,5.525,0,0,1,3.157,5.035.789.789,0,0,0,1.578,0A7.1,7.1,0,0,0,15.281,9.17Z" transform="translate(-1.279 -2.604)" fill="#8166ac"/>
</svg>
