<?xml version="1.0" standalone="no"?>
<!DOCTYPE svg PUBLIC "-//W3C//DTD SVG 20010904//EN"
 "http://www.w3.org/TR/2001/REC-SVG-20010904/DTD/svg10.dtd">
<svg version="1.0" xmlns="http://www.w3.org/2000/svg"
 width="24.000000pt" height="24.000000pt" viewBox="0 0 24.000000 24.000000"
 preserveAspectRatio="xMidYMid meet">

<g transform="translate(0.000000,24.000000) scale(0.100000,-0.100000)"
fill="#FFFFFF" stroke="none">
<path d="M69 205 c-34 -19 -48 -57 -46 -125 l2 -55 55 -2 c69 -2 107 12 125
48 48 92 -45 183 -136 134z m106 -30 c33 -33 33 -78 -1 -112 -23 -22 -31 -25
-72 -19 -25 3 -47 8 -49 9 -1 2 -6 24 -9 49 -6 41 -3 49 19 72 34 34 79 34
112 1z"/>
<path d="M77 164 c-14 -14 -7 -41 16 -61 28 -26 63 -37 72 -23 10 16 0 23 -32
24 -22 1 -29 6 -31 26 -4 29 -15 43 -25 34z"/>
</g>
</svg>
